<svg width="1288" height="104" viewBox="0 0 1288 104" fill="none" xmlns="http://www.w3.org/2000/svg">
<g opacity="0.15">
<path d="M47.1717 99.8183L0 -72.8205H44.0107L71.7302 41.2184L99.936 -72.8205H134.95L163.399 41.2184L190.875 -72.8205H234.643L187.957 99.8183H143.704L117.443 -2.79234L91.1825 99.8183H47.1717Z" fill="#4A4D4B"/>
<path d="M326.403 103.709C308.572 103.709 293.172 100.062 280.204 92.7669C267.398 85.4723 257.591 75.0978 250.782 61.6433C243.974 48.1888 240.57 32.2217 240.57 13.7421C240.57 -4.73757 243.974 -20.7046 250.782 -34.1591C257.591 -47.7757 267.398 -58.2313 280.204 -65.5259C293.172 -72.9826 308.572 -76.7109 326.403 -76.7109C344.396 -76.7109 359.715 -72.9826 372.359 -65.5259C385.165 -58.2313 394.972 -47.7757 401.78 -34.1591C408.751 -20.7046 412.236 -4.73757 412.236 13.7421C412.236 32.2217 408.751 48.1888 401.78 61.6433C394.972 75.0978 385.165 85.4723 372.359 92.7669C359.715 100.062 344.396 103.709 326.403 103.709ZM326.403 69.181C335.319 69.181 342.856 66.9926 349.016 62.6159C355.338 58.2391 360.201 51.9171 363.605 43.6499C367.009 35.3827 368.712 25.4134 368.712 13.7421C368.712 2.07072 367.009 -7.89857 363.605 -16.1658C360.201 -24.5951 355.338 -30.9981 349.016 -35.3749C342.694 -39.9137 335.075 -42.1832 326.16 -42.1832C317.406 -42.1832 309.868 -39.9137 303.546 -35.3749C297.224 -30.9981 292.361 -24.5951 288.957 -16.1658C285.715 -7.89857 284.094 2.07072 284.094 13.7421C284.094 25.4134 285.715 35.3827 288.957 43.6499C292.361 51.9171 297.224 58.2391 303.546 62.6159C309.868 66.9926 317.487 69.181 326.403 69.181Z" fill="#4A4D4B"/>
<path d="M518.029 103.709C500.197 103.709 484.798 100.062 471.829 92.7669C459.023 85.4723 449.216 75.0978 442.408 61.6433C435.6 48.1888 432.195 32.2217 432.195 13.7421C432.195 -4.73757 435.6 -20.7046 442.408 -34.1591C449.216 -47.7757 459.023 -58.2313 471.829 -65.5259C484.798 -72.9826 500.197 -76.7109 518.029 -76.7109C536.022 -76.7109 551.341 -72.9826 563.984 -65.5259C576.791 -58.2313 586.598 -47.7757 593.406 -34.1591C600.376 -20.7046 603.862 -4.73757 603.862 13.7421C603.862 32.2217 600.376 48.1888 593.406 61.6433C586.598 75.0978 576.791 85.4723 563.984 92.7669C551.341 100.062 536.022 103.709 518.029 103.709ZM518.029 69.181C526.944 69.181 534.482 66.9926 540.642 62.6159C546.964 58.2391 551.827 51.9171 555.231 43.6499C558.635 35.3827 560.337 25.4134 560.337 13.7421C560.337 2.07072 558.635 -7.89857 555.231 -16.1658C551.827 -24.5951 546.964 -30.9981 540.642 -35.3749C534.32 -39.9137 526.701 -42.1832 517.785 -42.1832C509.032 -42.1832 501.494 -39.9137 495.172 -35.3749C488.85 -30.9981 483.987 -24.5951 480.583 -16.1658C477.341 -7.89857 475.72 2.07072 475.72 13.7421C475.72 25.4134 477.341 35.3827 480.583 43.6499C483.987 51.9171 488.85 58.2391 495.172 62.6159C501.494 66.9926 509.113 69.181 518.029 69.181Z" fill="#4A4D4B"/>
<path d="M626.35 99.8183V-72.8205H687.867C716.397 -72.8205 738.281 -65.2827 753.519 -50.2072C768.918 -35.2938 776.618 -13.9774 776.618 13.7421C776.618 41.2995 769.081 62.5348 754.005 77.4482C738.93 92.3616 717.37 99.8183 689.326 99.8183H626.35ZM668.658 65.2906H687.867C703.429 65.2906 714.857 61.0759 722.152 52.6466C729.447 44.2173 733.094 31.1681 733.094 13.4989C733.094 -4.17021 729.447 -17.2194 722.152 -25.6488C714.857 -34.0781 703.429 -38.2927 687.867 -38.2927H668.658V65.2906Z" fill="#4A4D4B"/>
<path d="M830.239 99.8183V-38.2927H779.177V-72.8205H923.853V-38.2927H872.791V99.8183H830.239Z" fill="#4A4D4B"/>
<path d="M939.552 99.8183V-72.8205H995.477L1035.84 44.8657L1075.96 -72.8205H1131.89V99.8183H1089.58V-4.73756L1051.89 99.332H1019.31L981.86 -4.73756V99.8183H939.552Z" fill="#4A4D4B"/>
<path d="M1162.05 99.8183V-72.8205H1286.05V-38.2927H1204.36V-4.00811H1283.14V30.5197H1204.36V65.2906H1288V99.8183H1162.05Z" fill="#4A4D4B"/>
</g>
</svg>
