<svg width="360" height="55" viewBox="0 0 360 55" fill="none" xmlns="http://www.w3.org/2000/svg">
<g opacity="0.15">
<path d="M-0.680008 53.5893L-15 1.18103H-1.6396L6.77525 35.8L15.3377 1.18103H25.967L34.6033 35.8L42.9443 1.18103H56.2309L42.0585 53.5893H28.6243L20.6524 22.4396L12.6804 53.5893H-0.680008Z" fill="#4A4D4B"/>
<path d="M84.0866 54.7703C78.6735 54.7703 73.9986 53.6631 70.0619 51.4486C66.1743 49.2342 63.1971 46.0848 61.1303 42.0004C59.0635 37.916 58.0301 33.0688 58.0301 27.459C58.0301 21.8491 59.0635 17.0019 61.1303 12.9175C63.1971 8.78391 66.1743 5.60989 70.0619 3.39546C73.9986 1.13182 78.6735 0 84.0866 0C89.5489 0 94.1992 1.13182 98.0375 3.39546C101.925 5.60989 104.902 8.78391 106.969 12.9175C109.085 17.0019 110.143 21.8491 110.143 27.459C110.143 33.0688 109.085 37.916 106.969 42.0004C104.902 46.0848 101.925 49.2342 98.0375 51.4486C94.1992 53.6631 89.5489 54.7703 84.0866 54.7703ZM84.0866 44.2886C86.7931 44.2886 89.0814 43.6243 90.9513 42.2957C92.8705 40.967 94.3468 39.0478 95.3802 36.5381C96.4136 34.0284 96.9303 31.002 96.9303 27.459C96.9303 23.9159 96.4136 20.8895 95.3802 18.3798C94.3468 15.8209 92.8705 13.8771 90.9513 12.5484C89.0322 11.1706 86.7193 10.4816 84.0128 10.4816C81.3555 10.4816 79.0672 11.1706 77.148 12.5484C75.2289 13.8771 73.7526 15.8209 72.7192 18.3798C71.735 20.8895 71.2429 23.9159 71.2429 27.459C71.2429 31.002 71.735 34.0284 72.7192 36.5381C73.7526 39.0478 75.2289 40.967 77.148 42.2957C79.0672 43.6243 81.3801 44.2886 84.0866 44.2886Z" fill="#4A4D4B"/>
<path d="M142.259 54.7703C136.846 54.7703 132.171 53.6631 128.234 51.4486C124.346 49.2342 121.369 46.0848 119.302 42.0004C117.236 37.916 116.202 33.0688 116.202 27.459C116.202 21.8491 117.236 17.0019 119.302 12.9175C121.369 8.78391 124.346 5.60989 128.234 3.39546C132.171 1.13182 136.846 0 142.259 0C147.721 0 152.371 1.13182 156.21 3.39546C160.097 5.60989 163.074 8.78391 165.141 12.9175C167.257 17.0019 168.315 21.8491 168.315 27.459C168.315 33.0688 167.257 37.916 165.141 42.0004C163.074 46.0848 160.097 49.2342 156.21 51.4486C152.371 53.6631 147.721 54.7703 142.259 54.7703ZM142.259 44.2886C144.965 44.2886 147.253 43.6243 149.123 42.2957C151.043 40.967 152.519 39.0478 153.552 36.5381C154.586 34.0284 155.102 31.002 155.102 27.459C155.102 23.9159 154.586 20.8895 153.552 18.3798C152.519 15.8209 151.043 13.8771 149.123 12.5484C147.204 11.1706 144.891 10.4816 142.185 10.4816C139.528 10.4816 137.239 11.1706 135.32 12.5484C133.401 13.8771 131.925 15.8209 130.891 18.3798C129.907 20.8895 129.415 23.9159 129.415 27.459C129.415 31.002 129.907 34.0284 130.891 36.5381C131.925 39.0478 133.401 40.967 135.32 42.2957C137.239 43.6243 139.552 44.2886 142.259 44.2886Z" fill="#4A4D4B"/>
<path d="M175.142 53.5893V1.18103H193.817C202.478 1.18103 209.121 3.46927 213.747 8.04577C218.422 12.573 220.759 19.0441 220.759 27.459C220.759 35.8246 218.471 42.271 213.894 46.7983C209.318 51.3256 202.773 53.5893 194.26 53.5893H175.142ZM187.986 43.1076H193.817C198.541 43.1076 202.01 41.8282 204.225 39.2693C206.439 36.7104 207.546 32.749 207.546 27.3851C207.546 22.0213 206.439 18.0599 204.225 15.501C202.01 12.9421 198.541 11.6627 193.817 11.6627H187.986V43.1076Z" fill="#4A4D4B"/>
<path d="M237.037 53.5893V11.6627H221.536V1.18103H265.455V11.6627H249.954V53.5893H237.037Z" fill="#4A4D4B"/>
<path d="M270.221 53.5893V1.18103H287.198L299.452 36.9072L311.631 1.18103H328.608V53.5893H315.765V21.8491L304.323 53.4416H294.432L283.065 21.8491V53.5893H270.221Z" fill="#4A4D4B"/>
<path d="M337.764 53.5893V1.18103H375.409V11.6627H350.608V22.0705H374.524V32.5521H350.608V43.1076H376V53.5893H337.764Z" fill="#4A4D4B"/>
</g>
</svg>
