<svg width="24" height="24" viewBox="0 0 24 24" fill="none" xmlns="http://www.w3.org/2000/svg">
<path d="M12 2C13.9401 1.99965 15.8385 2.56368 17.4637 3.62336C19.0889 4.68303 20.3707 6.19259 21.153 7.96804C21.9352 9.74349 22.1841 11.7082 21.8693 13.6226C21.5545 15.537 20.6896 17.3185 19.38 18.75M2.5 8.875C2.18135 9.84366 2.01273 10.8554 2 11.875M2.83 16C3.3915 17.2918 4.21958 18.4505 5.26 19.4M4.636 5.235C4.91504 4.93123 5.21261 4.64502 5.527 4.378M8.644 21.42C11.1377 22.3084 13.8819 22.1717 16.275 21.04" stroke="#103FCC" stroke-width="2" stroke-linecap="round" stroke-linejoin="round"/>
<path d="M7.28 15V14.304L9.504 12.192C9.69067 12.016 9.82933 11.8613 9.92 11.728C10.0107 11.5947 10.0693 11.472 10.096 11.36C10.128 11.2427 10.144 11.1333 10.144 11.032C10.144 10.776 10.056 10.5787 9.88 10.44C9.704 10.296 9.44533 10.224 9.104 10.224C8.832 10.224 8.584 10.272 8.36 10.368C8.14133 10.464 7.952 10.6107 7.792 10.808L7.064 10.248C7.28267 9.95467 7.576 9.728 7.944 9.568C8.31733 9.40267 8.73333 9.32 9.192 9.32C9.59733 9.32 9.94933 9.38667 10.248 9.52C10.552 9.648 10.784 9.832 10.944 10.072C11.1093 10.312 11.192 10.5973 11.192 10.928C11.192 11.1093 11.168 11.2907 11.12 11.472C11.072 11.648 10.9813 11.8347 10.848 12.032C10.7147 12.2293 10.52 12.4507 10.264 12.696L8.352 14.512L8.136 14.12H11.408V15H7.28ZM11.8111 13.728V13.008L14.5711 9.4H15.6831L12.9631 13.008L12.4431 12.848H16.8831V13.728H11.8111ZM14.8831 15V13.728L14.9151 12.848V11.72H15.8911V15H14.8831Z" fill="#103FCC"/>
</svg>
