<svg width="146" height="28" viewBox="0 0 146 28" fill="none" xmlns="http://www.w3.org/2000/svg">
<path d="M5.34711 24.0103L0 4.441H4.9888L8.13091 17.3678L11.3281 4.441H15.2971L18.5219 17.3678L21.6365 4.441H26.5977L21.3057 24.0103H16.2894L13.3126 12.379L10.3359 24.0103H5.34711Z" fill="#3B945F"/>
<path d="M36.9991 24.4513C34.9778 24.4513 33.2322 24.0379 31.7622 23.211C30.3106 22.3841 29.1989 21.2081 28.4272 19.683C27.6554 18.1579 27.2696 16.348 27.2696 14.2532C27.2696 12.1585 27.6554 10.3485 28.4272 8.82342C29.1989 7.27993 30.3106 6.09474 31.7622 5.26787C33.2322 4.42262 34.9778 4 36.9991 4C39.0387 4 40.7751 4.42262 42.2084 5.26787C43.66 6.09474 44.7717 7.27993 45.5434 8.82342C46.3336 10.3485 46.7286 12.1585 46.7286 14.2532C46.7286 16.348 46.3336 18.1579 45.5434 19.683C44.7717 21.2081 43.66 22.3841 42.2084 23.211C40.7751 24.0379 39.0387 24.4513 36.9991 24.4513ZM36.9991 20.5374C38.0097 20.5374 38.8641 20.2894 39.5624 19.7933C40.279 19.2971 40.8303 18.5805 41.2161 17.6434C41.602 16.7063 41.7949 15.5762 41.7949 14.2532C41.7949 12.9302 41.602 11.8002 41.2161 10.863C40.8303 9.90754 40.279 9.18173 39.5624 8.68561C38.8458 8.17111 37.9821 7.91386 36.9715 7.91386C35.9793 7.91386 35.1248 8.17111 34.4082 8.68561C33.6916 9.18173 33.1403 9.90754 32.7545 10.863C32.387 11.8002 32.2032 12.9302 32.2032 14.2532C32.2032 15.5762 32.387 16.7063 32.7545 17.6434C33.1403 18.5805 33.6916 19.2971 34.4082 19.7933C35.1248 20.2894 35.9885 20.5374 36.9991 20.5374Z" fill="#3B945F"/>
<path d="M58.7206 24.4513C56.6994 24.4513 54.9538 24.0379 53.4838 23.211C52.0322 22.3841 50.9205 21.2081 50.1487 19.683C49.377 18.1579 48.9911 16.348 48.9911 14.2532C48.9911 12.1585 49.377 10.3485 50.1487 8.82342C50.9205 7.27993 52.0322 6.09474 53.4838 5.26787C54.9538 4.42262 56.6994 4 58.7206 4C60.7602 4 62.4967 4.42262 63.9299 5.26787C65.3815 6.09474 66.4932 7.27993 67.265 8.82342C68.0551 10.3485 68.4502 12.1585 68.4502 14.2532C68.4502 16.348 68.0551 18.1579 67.265 19.683C66.4932 21.2081 65.3815 22.3841 63.9299 23.211C62.4967 24.0379 60.7602 24.4513 58.7206 24.4513ZM58.7206 20.5374C59.7313 20.5374 60.5857 20.2894 61.2839 19.7933C62.0006 19.2971 62.5518 18.5805 62.9377 17.6434C63.3236 16.7063 63.5165 15.5762 63.5165 14.2532C63.5165 12.9302 63.3236 11.8002 62.9377 10.863C62.5518 9.90754 62.0006 9.18173 61.2839 8.68561C60.5673 8.17111 59.7037 7.91386 58.6931 7.91386C57.7008 7.91386 56.8464 8.17111 56.1298 8.68561C55.4131 9.18173 54.8619 9.90754 54.476 10.863C54.1085 11.8002 53.9248 12.9302 53.9248 14.2532C53.9248 15.5762 54.1085 16.7063 54.476 17.6434C54.8619 18.5805 55.4131 19.2971 56.1298 19.7933C56.8464 20.2894 57.71 20.5374 58.7206 20.5374Z" fill="#3B945F"/>
<path d="M70.9993 24.0103V4.441H77.9725C81.2065 4.441 83.6871 5.29543 85.4144 7.0043C87.16 8.6948 88.0328 11.1111 88.0328 14.2532C88.0328 17.377 87.1784 19.7841 85.4695 21.4746C83.7606 23.1651 81.3168 24.0103 78.1379 24.0103H70.9993ZM75.7951 20.0964H77.9725C79.7365 20.0964 81.032 19.6187 81.8588 18.6632C82.6857 17.7077 83.0991 16.2285 83.0991 14.2257C83.0991 12.2228 82.6857 10.7436 81.8588 9.7881C81.032 8.83261 79.7365 8.35486 77.9725 8.35486H75.7951V20.0964Z" fill="#3B945F"/>
<path d="M94.111 24.0103V8.35486H88.3229V4.441H104.722V8.35486H98.9344V24.0103H94.111Z" fill="#191A19"/>
<path d="M106.502 24.0103V4.441H112.841L117.417 17.7812L121.965 4.441H128.304V24.0103H123.508V12.1585L119.236 23.9552H115.542L111.298 12.1585V24.0103H106.502Z" fill="#191A19"/>
<path d="M131.723 24.0103V4.441H145.779V8.35486H136.519V12.2412H145.449V16.155H136.519V20.0964H146V24.0103H131.723Z" fill="#191A19"/>
</svg>
