<svg width="40" height="40" viewBox="0 0 40 40" fill="none" xmlns="http://www.w3.org/2000/svg">
<path d="M0 3.33333C0 1.49238 1.49238 0 3.33333 0H36.6667C38.5076 0 40 1.49238 40 3.33333V36.6667C40 38.5076 38.5076 40 36.6667 40H3.33333C1.49238 40 0 38.5076 0 36.6667V3.33333Z" fill="#3B945F"/>
<path fill-rule="evenodd" clip-rule="evenodd" d="M30.999 19.999C30.999 26.0736 26.0746 30.998 20 30.998C17.9829 30.998 16.0925 30.455 14.4672 29.5072L9.00098 30.998L10.4918 25.5318C9.54397 23.9065 9.00098 22.0162 9.00098 19.999C9.00098 13.9244 13.9254 9 20 9C26.0746 9 30.999 13.9244 30.999 19.999ZM23.1657 21.2926C22.9136 21.2037 22.7299 21.1567 22.5514 21.4284C22.3676 21.7002 21.8426 22.3169 21.6851 22.4946C20.7036 23.6345 17.8206 20.0754 17.3695 19.3222C17.212 19.0504 17.3538 18.9041 17.4903 18.7682C17.763 18.4967 18.0046 18.1825 18.1728 17.8379C18.262 17.655 18.22 17.4982 18.1518 17.3623C17.6586 16.3803 17.5401 14.864 16.1672 14.864C15.0397 14.864 14.4819 16.6905 14.4819 17.4773C14.4819 21.045 19.7154 25.6441 23.5542 25.0922C24.0792 25.0138 25.1712 24.4336 25.4022 23.796C25.628 23.1584 25.628 22.6148 25.5597 22.4999C25.2178 21.9238 23.655 21.4752 23.1657 21.2926Z" fill="#F5FAF7"/>
</svg>
