<svg width="40" height="40" viewBox="0 0 40 40" fill="none" xmlns="http://www.w3.org/2000/svg">
<path d="M0 3.33333C0 1.49238 1.49238 0 3.33333 0H36.6667C38.5076 0 40 1.49238 40 3.33333V36.6667C40 38.5076 38.5076 40 36.6667 40H3.33333C1.49238 40 0 38.5076 0 36.6667V3.33333Z" fill="#3B945F"/>
<path d="M28.0198 10.1768C28.0198 10.1768 30.1674 9.31115 29.9885 11.4131L27.4836 28.2939C27.4817 28.3159 27.3562 29.7172 26.3489 29.9629C25.3335 30.2101 23.6654 29.0986 23.3665 28.8506C23.3147 28.8103 23.0743 28.6473 22.7141 28.4033C21.4152 27.5235 18.5561 25.5864 17.342 24.5215C16.9245 24.1506 16.4474 23.4085 17.4016 22.543C19.5489 20.5025 22.1138 17.967 23.6643 16.3594C24.38 15.6172 25.0956 13.8869 22.1135 15.9893L13.7034 21.8633C13.6868 21.8739 12.7337 22.4762 10.9602 21.9248C9.18485 21.3727 7.11528 20.6383 7.08325 20.627C7.08325 20.627 5.653 19.699 8.0979 18.71L21.9954 12.7734C23.36 12.1584 27.9713 10.1974 28.0198 10.1768Z" fill="#F5FAF7"/>
</svg>
